# xmcd
#
# Track frame offsets:
#	150
#	14900
#	32300
#	47337
#	71275
#	90562
#	101237
#	117225
#	135512
#	153625
#
# Disc length: 2197 seconds
#
# Revision: 1
# Processed by: cddbd v1.4PL0 Copyright (c) Steve Scherf et al.
# Submitted via: audiograbber 1.80
#
DISCID=7a08930a
DTITLE=Arthur Brown with Jimmy Carl Black - Brown, Black and Blue
DYEAR=1900
DGENRE=
TTITLE0=Fever
TTITLE1=Monkey Walk
TTITLE2=Unchain My Heart
TTITLE3=Got My Mojo Working
TTITLE4=Smokestack Lightnin'
TTITLE5=Hound Dog
TTITLE6=Help Me
TTITLE7=The Right Time
TTITLE8=Stand By Me
TTITLE9=The Lord Is My Friend
EXTD=
EXTT0=
EXTT1=
EXTT2=
EXTT3=
EXTT4=
EXTT5=
EXTT6=
EXTT7=
EXTT8=
EXTT9=
PLAYORDER=
